<mxfile host="Electron" agent="Mozilla/5.0 (Windows NT 10.0; Win64; x64) AppleWebKit/537.36 (KHTML, like Gecko) draw.io/26.2.2 Chrome/134.0.6998.178 Electron/35.1.2 Safari/537.36" version="26.2.2">
  <diagram name="Voting App Architecture" id="H1AXBqJ8X6USiyiLlAY3">
    <mxGraphModel dx="1703" dy="996" grid="1" gridSize="10" guides="1" tooltips="1" connect="1" arrows="1" fold="1" page="1" pageScale="1" pageWidth="850" pageHeight="1100" math="0" shadow="0">
      <root>
        <mxCell id="0" />
        <mxCell id="1" parent="0" />
        <mxCell id="w-jcUPjgkMpujR0xgrFn-191" value="Kubernetes Voting Application Architecture" style="text;html=1;strokeColor=none;fillColor=none;align=center;verticalAlign=middle;whiteSpace=wrap;rounded=0;fontSize=24;fontStyle=1" vertex="1" parent="1">
          <mxGeometry x="300" y="30" width="600" height="40" as="geometry" />
        </mxCell>
        <mxCell id="w-jcUPjgkMpujR0xgrFn-192" value="Kubernetes Cluster" style="rounded=0;whiteSpace=wrap;html=1;fillColor=#f5f5f5;strokeColor=#666666;dashed=1;verticalAlign=top;fontSize=16;fontStyle=1" vertex="1" parent="1">
          <mxGeometry x="40" y="70" width="1120" height="740" as="geometry" />
        </mxCell>
        <mxCell id="w-jcUPjgkMpujR0xgrFn-193" value="Network Policies" style="text;html=1;strokeColor=none;fillColor=none;align=center;verticalAlign=middle;whiteSpace=wrap;rounded=0;fontSize=14;fontStyle=1" vertex="1" parent="1">
          <mxGeometry x="900" y="110" width="150" height="20" as="geometry" />
        </mxCell>
        <mxCell id="w-jcUPjgkMpujR0xgrFn-194" value="Frontend Tier" style="rounded=0;whiteSpace=wrap;html=1;fillColor=#dae8fc;strokeColor=#6c8ebf;verticalAlign=top;fontSize=14;fontStyle=1" vertex="1" parent="1">
          <mxGeometry x="110" y="240" width="280" height="200" as="geometry" />
        </mxCell>
        <mxCell id="w-jcUPjgkMpujR0xgrFn-195" value="Backend Tier" style="rounded=0;whiteSpace=wrap;html=1;fillColor=#d5e8d4;strokeColor=#82b366;verticalAlign=top;fontSize=14;fontStyle=1" vertex="1" parent="1">
          <mxGeometry x="440" y="410" width="300" height="150" as="geometry" />
        </mxCell>
        <mxCell id="w-jcUPjgkMpujR0xgrFn-196" value="Database Tier" style="rounded=0;whiteSpace=wrap;html=1;fillColor=#ffe6cc;strokeColor=#d79b00;verticalAlign=top;fontSize=14;fontStyle=1" vertex="1" parent="1">
          <mxGeometry x="780" y="240" width="340" height="220" as="geometry" />
        </mxCell>
        <mxCell id="w-jcUPjgkMpujR0xgrFn-197" value="Monitoring &amp; Observability" style="rounded=0;whiteSpace=wrap;html=1;fillColor=#e1d5e7;strokeColor=#9673a6;verticalAlign=top;fontSize=14;fontStyle=1" vertex="1" parent="1">
          <mxGeometry x="110" y="610" width="900" height="170" as="geometry" />
        </mxCell>
        <mxCell id="w-jcUPjgkMpujR0xgrFn-198" value="Ingress Controller with SSL Termination" style="rounded=0;whiteSpace=wrap;html=1;fillColor=#f8cecc;strokeColor=#b85450;verticalAlign=top;fontSize=14;fontStyle=1" vertex="1" parent="1">
          <mxGeometry x="110" y="140" width="950" height="80" as="geometry" />
        </mxCell>
        <mxCell id="w-jcUPjgkMpujR0xgrFn-199" value="Ingress" style="rounded=1;whiteSpace=wrap;html=1;fillColor=#f8cecc;strokeColor=#b85450;" vertex="1" parent="1">
          <mxGeometry x="280" y="170" width="120" height="40" as="geometry" />
        </mxCell>
        <mxCell id="w-jcUPjgkMpujR0xgrFn-200" value="Cert-Manager" style="rounded=1;whiteSpace=wrap;html=1;fillColor=#f8cecc;strokeColor=#b85450;" vertex="1" parent="1">
          <mxGeometry x="430" y="170" width="120" height="40" as="geometry" />
        </mxCell>
        <mxCell id="w-jcUPjgkMpujR0xgrFn-201" value="Self-Signed Certificate" style="rounded=1;whiteSpace=wrap;html=1;fillColor=#f8cecc;strokeColor=#b85450;" vertex="1" parent="1">
          <mxGeometry x="580" y="170" width="160" height="40" as="geometry" />
        </mxCell>
        <mxCell id="w-jcUPjgkMpujR0xgrFn-202" value="ClusterIssuer" style="rounded=1;whiteSpace=wrap;html=1;fillColor=#f8cecc;strokeColor=#b85450;" vertex="1" parent="1">
          <mxGeometry x="770" y="170" width="120" height="40" as="geometry" />
        </mxCell>
        <mxCell id="w-jcUPjgkMpujR0xgrFn-203" value="Vote UI&#xa;(Frontend Service)" style="rounded=1;whiteSpace=wrap;html=1;fillColor=#dae8fc;strokeColor=#6c8ebf;" vertex="1" parent="1">
          <mxGeometry x="150" y="280" width="200" height="60" as="geometry" />
        </mxCell>
        <mxCell id="w-jcUPjgkMpujR0xgrFn-204" value="Result UI&#xa;(Frontend Service)" style="rounded=1;whiteSpace=wrap;html=1;fillColor=#dae8fc;strokeColor=#6c8ebf;" vertex="1" parent="1">
          <mxGeometry x="150" y="360" width="200" height="60" as="geometry" />
        </mxCell>
        <mxCell id="w-jcUPjgkMpujR0xgrFn-205" value="Worker&#xa;(Backend Service)" style="rounded=1;whiteSpace=wrap;html=1;fillColor=#d5e8d4;strokeColor=#82b366;" vertex="1" parent="1">
          <mxGeometry x="480" y="450" width="200" height="60" as="geometry" />
        </mxCell>
        <mxCell id="w-jcUPjgkMpujR0xgrFn-206" value="Worker Canary" style="rounded=1;whiteSpace=wrap;html=1;fillColor=#d5e8d4;strokeColor=#82b366;dashed=1;" vertex="1" parent="1">
          <mxGeometry x="620" y="530" width="120" height="30" as="geometry" />
        </mxCell>
        <mxCell id="w-jcUPjgkMpujR0xgrFn-207" value="Redis&#xa;(In-Memory Cache)" style="rounded=1;whiteSpace=wrap;html=1;fillColor=#ffe6cc;strokeColor=#d79b00;" vertex="1" parent="1">
          <mxGeometry x="820" y="280" width="200" height="60" as="geometry" />
        </mxCell>
        <mxCell id="w-jcUPjgkMpujR0xgrFn-208" value="PostgreSQL&#xa;(Database)" style="rounded=1;whiteSpace=wrap;html=1;fillColor=#ffe6cc;strokeColor=#d79b00;" vertex="1" parent="1">
          <mxGeometry x="820" y="360" width="200" height="60" as="geometry" />
        </mxCell>
        <mxCell id="w-jcUPjgkMpujR0xgrFn-209" value="Database Backup&#xa;(CronJob)" style="rounded=1;whiteSpace=wrap;html=1;fillColor=#ffe6cc;strokeColor=#d79b00;dashed=1;" vertex="1" parent="1">
          <mxGeometry x="860" y="410" width="130" height="30" as="geometry" />
        </mxCell>
        <mxCell id="w-jcUPjgkMpujR0xgrFn-210" value="Prometheus&#xa;(Metrics Collection)" style="rounded=1;whiteSpace=wrap;html=1;fillColor=#e1d5e7;strokeColor=#9673a6;" vertex="1" parent="1">
          <mxGeometry x="150" y="650" width="200" height="60" as="geometry" />
        </mxCell>
        <mxCell id="w-jcUPjgkMpujR0xgrFn-211" value="Grafana&#xa;(Visualization)" style="rounded=1;whiteSpace=wrap;html=1;fillColor=#e1d5e7;strokeColor=#9673a6;" vertex="1" parent="1">
          <mxGeometry x="390" y="650" width="200" height="60" as="geometry" />
        </mxCell>
        <mxCell id="w-jcUPjgkMpujR0xgrFn-212" value="Loki&#xa;(Log Aggregation)" style="rounded=1;whiteSpace=wrap;html=1;fillColor=#e1d5e7;strokeColor=#9673a6;" vertex="1" parent="1">
          <mxGeometry x="630" y="650" width="200" height="60" as="geometry" />
        </mxCell>
        <mxCell id="w-jcUPjgkMpujR0xgrFn-213" value="Alert Manager" style="rounded=1;whiteSpace=wrap;html=1;fillColor=#e1d5e7;strokeColor=#9673a6;" vertex="1" parent="1">
          <mxGeometry x="800" y="720" width="200" height="40" as="geometry" />
        </mxCell>
        <mxCell id="w-jcUPjgkMpujR0xgrFn-214" value="HPA" style="rhombus;whiteSpace=wrap;html=1;fillColor=#dae8fc;strokeColor=#6c8ebf;" vertex="1" parent="1">
          <mxGeometry x="210" y="340" width="60" height="30" as="geometry" />
        </mxCell>
        <mxCell id="w-jcUPjgkMpujR0xgrFn-215" value="HPA" style="rhombus;whiteSpace=wrap;html=1;fillColor=#dae8fc;strokeColor=#6c8ebf;" vertex="1" parent="1">
          <mxGeometry x="210" y="420" width="60" height="30" as="geometry" />
        </mxCell>
        <mxCell id="w-jcUPjgkMpujR0xgrFn-216" value="HPA" style="rhombus;whiteSpace=wrap;html=1;fillColor=#d5e8d4;strokeColor=#82b366;" vertex="1" parent="1">
          <mxGeometry x="550" y="510" width="60" height="30" as="geometry" />
        </mxCell>
        <mxCell id="w-jcUPjgkMpujR0xgrFn-217" value="PVC" style="shape=cylinder3;whiteSpace=wrap;html=1;boundedLbl=1;backgroundOutline=1;size=10;fillColor=#ffe6cc;strokeColor=#d79b00;" vertex="1" parent="1">
          <mxGeometry x="830" y="280" width="40" height="40" as="geometry" />
        </mxCell>
        <mxCell id="w-jcUPjgkMpujR0xgrFn-218" value="PVC" style="shape=cylinder3;whiteSpace=wrap;html=1;boundedLbl=1;backgroundOutline=1;size=10;fillColor=#ffe6cc;strokeColor=#d79b00;" vertex="1" parent="1">
          <mxGeometry x="830" y="360" width="40" height="40" as="geometry" />
        </mxCell>
        <mxCell id="w-jcUPjgkMpujR0xgrFn-219" value="Backup&#xa;PVC" style="shape=cylinder3;whiteSpace=wrap;html=1;boundedLbl=1;backgroundOutline=1;size=10;fillColor=#ffe6cc;strokeColor=#d79b00;" vertex="1" parent="1">
          <mxGeometry x="1060" y="355" width="40" height="50" as="geometry" />
        </mxCell>
        <mxCell id="w-jcUPjgkMpujR0xgrFn-220" value="Network&#xa;Policy" style="shape=hexagon;perimeter=hexagonPerimeter2;whiteSpace=wrap;html=1;fixedSize=1;fillColor=#f5f5f5;strokeColor=#666666;size=10;fontStyle=0;fontSize=10;" vertex="1" parent="1">
          <mxGeometry x="920" y="140" width="60" height="40" as="geometry" />
        </mxCell>
        <mxCell id="w-jcUPjgkMpujR0xgrFn-221" value="Network&#xa;Policy" style="shape=hexagon;perimeter=hexagonPerimeter2;whiteSpace=wrap;html=1;fixedSize=1;fillColor=#f5f5f5;strokeColor=#666666;size=10;fontStyle=0;fontSize=10;" vertex="1" parent="1">
          <mxGeometry x="980" y="140" width="60" height="40" as="geometry" />
        </mxCell>
        <mxCell id="w-jcUPjgkMpujR0xgrFn-222" value="External Traffic" style="ellipse;shape=cloud;whiteSpace=wrap;html=1;fillColor=#f5f5f5;strokeColor=#666666;" vertex="1" parent="1">
          <mxGeometry x="250" y="70" width="160" height="80" as="geometry" />
        </mxCell>
        <mxCell id="w-jcUPjgkMpujR0xgrFn-223" value="" style="endArrow=classic;html=1;rounded=0;entryX=0.5;entryY=0;entryDx=0;entryDy=0;exitX=0.55;exitY=0.95;exitDx=0;exitDy=0;exitPerimeter=0;" edge="1" parent="1" source="w-jcUPjgkMpujR0xgrFn-222" target="w-jcUPjgkMpujR0xgrFn-199">
          <mxGeometry width="50" height="50" relative="1" as="geometry">
            <mxPoint x="530" y="390" as="sourcePoint" />
            <mxPoint x="580" y="340" as="targetPoint" />
          </mxGeometry>
        </mxCell>
        <mxCell id="w-jcUPjgkMpujR0xgrFn-224" value="" style="endArrow=classic;html=1;rounded=0;exitX=0.25;exitY=1;exitDx=0;exitDy=0;entryX=0.5;entryY=0;entryDx=0;entryDy=0;" edge="1" parent="1" source="w-jcUPjgkMpujR0xgrFn-199" target="w-jcUPjgkMpujR0xgrFn-203">
          <mxGeometry width="50" height="50" relative="1" as="geometry">
            <mxPoint x="530" y="390" as="sourcePoint" />
            <mxPoint x="580" y="340" as="targetPoint" />
            <Array as="points">
              <mxPoint x="310" y="220" />
              <mxPoint x="250" y="220" />
            </Array>
          </mxGeometry>
        </mxCell>
        <mxCell id="w-jcUPjgkMpujR0xgrFn-225" value="" style="endArrow=classic;html=1;rounded=0;exitX=0.25;exitY=1;exitDx=0;exitDy=0;entryX=0.5;entryY=0;entryDx=0;entryDy=0;" edge="1" parent="1" source="w-jcUPjgkMpujR0xgrFn-199" target="w-jcUPjgkMpujR0xgrFn-204">
          <mxGeometry width="50" height="50" relative="1" as="geometry">
            <mxPoint x="330" y="220" as="sourcePoint" />
            <mxPoint x="260" y="290" as="targetPoint" />
            <Array as="points">
              <mxPoint x="310" y="220" />
              <mxPoint x="250" y="250" />
              <mxPoint x="250" y="330" />
              <mxPoint x="250" y="350" />
            </Array>
          </mxGeometry>
        </mxCell>
        <mxCell id="w-jcUPjgkMpujR0xgrFn-226" value="" style="endArrow=classic;html=1;rounded=0;exitX=0.75;exitY=1;exitDx=0;exitDy=0;entryX=0.5;entryY=0;entryDx=0;entryDy=0;" edge="1" parent="1" source="w-jcUPjgkMpujR0xgrFn-199" target="w-jcUPjgkMpujR0xgrFn-211">
          <mxGeometry width="50" height="50" relative="1" as="geometry">
            <mxPoint x="530" y="390" as="sourcePoint" />
            <mxPoint x="580" y="340" as="targetPoint" />
            <Array as="points">
              <mxPoint x="370" y="220" />
              <mxPoint x="370" y="590" />
              <mxPoint x="490" y="590" />
            </Array>
          </mxGeometry>
        </mxCell>
        <mxCell id="w-jcUPjgkMpujR0xgrFn-227" value="" style="endArrow=classic;html=1;rounded=0;exitX=0.75;exitY=1;exitDx=0;exitDy=0;entryX=0.5;entryY=0;entryDx=0;entryDy=0;" edge="1" parent="1" source="w-jcUPjgkMpujR0xgrFn-199" target="w-jcUPjgkMpujR0xgrFn-212">
          <mxGeometry width="50" height="50" relative="1" as="geometry">
            <mxPoint x="530" y="390" as="sourcePoint" />
            <mxPoint x="580" y="340" as="targetPoint" />
            <Array as="points">
              <mxPoint x="370" y="220" />
              <mxPoint x="370" y="590" />
              <mxPoint x="730" y="590" />
            </Array>
          </mxGeometry>
        </mxCell>
        <mxCell id="w-jcUPjgkMpujR0xgrFn-228" value="" style="endArrow=classic;html=1;rounded=0;exitX=1;exitY=0.5;exitDx=0;exitDy=0;entryX=0;entryY=0.5;entryDx=0;entryDy=0;strokeColor=#0066CC;strokeWidth=2;" edge="1" parent="1" source="w-jcUPjgkMpujR0xgrFn-203" target="w-jcUPjgkMpujR0xgrFn-207">
          <mxGeometry width="50" height="50" relative="1" as="geometry">
            <mxPoint x="530" y="390" as="sourcePoint" />
            <mxPoint x="580" y="340" as="targetPoint" />
          </mxGeometry>
        </mxCell>
        <mxCell id="w-jcUPjgkMpujR0xgrFn-229" value="" style="endArrow=classic;startArrow=classic;html=1;rounded=0;exitX=0;exitY=0.75;exitDx=0;exitDy=0;entryX=1;entryY=0.5;entryDx=0;entryDy=0;strokeColor=#009900;strokeWidth=2;" edge="1" parent="1" source="w-jcUPjgkMpujR0xgrFn-207" target="w-jcUPjgkMpujR0xgrFn-205">
          <mxGeometry width="50" height="50" relative="1" as="geometry">
            <mxPoint x="530" y="390" as="sourcePoint" />
            <mxPoint x="580" y="340" as="targetPoint" />
            <Array as="points">
              <mxPoint x="760" y="325" />
              <mxPoint x="760" y="480" />
            </Array>
          </mxGeometry>
        </mxCell>
        <mxCell id="w-jcUPjgkMpujR0xgrFn-230" value="" style="endArrow=classic;startArrow=classic;html=1;rounded=0;exitX=0;exitY=0.5;exitDx=0;exitDy=0;entryX=0;entryY=0.5;entryDx=0;entryDy=0;strokeColor=#CC6600;strokeWidth=2;" edge="1" parent="1" source="w-jcUPjgkMpujR0xgrFn-208" target="w-jcUPjgkMpujR0xgrFn-205">
          <mxGeometry width="50" height="50" relative="1" as="geometry">
            <mxPoint x="530" y="390" as="sourcePoint" />
            <mxPoint x="580" y="340" as="targetPoint" />
            <Array as="points">
              <mxPoint x="730" y="390" />
              <mxPoint x="730" y="440" />
              <mxPoint x="460" y="440" />
              <mxPoint x="460" y="480" />
            </Array>
          </mxGeometry>
        </mxCell>
        <mxCell id="w-jcUPjgkMpujR0xgrFn-231" value="" style="endArrow=classic;html=1;rounded=0;exitX=0;exitY=0.5;exitDx=0;exitDy=0;entryX=1;entryY=0.5;entryDx=0;entryDy=0;strokeColor=#FF6666;strokeWidth=2;" edge="1" parent="1" source="w-jcUPjgkMpujR0xgrFn-208" target="w-jcUPjgkMpujR0xgrFn-204">
          <mxGeometry width="50" height="50" relative="1" as="geometry">
            <mxPoint x="530" y="390" as="sourcePoint" />
            <mxPoint x="580" y="340" as="targetPoint" />
          </mxGeometry>
        </mxCell>
        <mxCell id="w-jcUPjgkMpujR0xgrFn-232" value="" style="endArrow=classic;html=1;rounded=0;entryX=0.5;entryY=0;entryDx=0;entryDy=0;exitX=0;exitY=0.5;exitDx=0;exitDy=0;strokeColor=#9933FF;dashed=1;" edge="1" parent="1" source="w-jcUPjgkMpujR0xgrFn-205" target="w-jcUPjgkMpujR0xgrFn-210">
          <mxGeometry width="50" height="50" relative="1" as="geometry">
            <mxPoint x="380" y="480" as="sourcePoint" />
            <mxPoint x="580" y="340" as="targetPoint" />
            <Array as="points">
              <mxPoint x="90" y="480" />
              <mxPoint x="90" y="570" />
              <mxPoint x="250" y="570" />
            </Array>
          </mxGeometry>
        </mxCell>
        <mxCell id="w-jcUPjgkMpujR0xgrFn-233" value="" style="endArrow=classic;html=1;rounded=0;exitX=1;exitY=0.5;exitDx=0;exitDy=0;entryX=0;entryY=0.5;entryDx=0;entryDy=0;strokeColor=#9933FF;" edge="1" parent="1" source="w-jcUPjgkMpujR0xgrFn-210" target="w-jcUPjgkMpujR0xgrFn-211">
          <mxGeometry width="50" height="50" relative="1" as="geometry">
            <mxPoint x="530" y="490" as="sourcePoint" />
            <mxPoint x="580" y="440" as="targetPoint" />
          </mxGeometry>
        </mxCell>
        <mxCell id="w-jcUPjgkMpujR0xgrFn-234" value="" style="endArrow=classic;html=1;rounded=0;exitX=0;exitY=0.5;exitDx=0;exitDy=0;entryX=1;entryY=0.5;entryDx=0;entryDy=0;strokeColor=#9933FF;" edge="1" parent="1" source="w-jcUPjgkMpujR0xgrFn-212" target="w-jcUPjgkMpujR0xgrFn-211">
          <mxGeometry width="50" height="50" relative="1" as="geometry">
            <mxPoint x="530" y="490" as="sourcePoint" />
            <mxPoint x="580" y="440" as="targetPoint" />
          </mxGeometry>
        </mxCell>
        <mxCell id="w-jcUPjgkMpujR0xgrFn-235" value="" style="endArrow=classic;html=1;rounded=0;exitX=0.75;exitY=1;exitDx=0;exitDy=0;entryX=0.5;entryY=0;entryDx=0;entryDy=0;strokeColor=#CC6600;dashed=1;" edge="1" parent="1" source="w-jcUPjgkMpujR0xgrFn-208" target="w-jcUPjgkMpujR0xgrFn-219">
          <mxGeometry width="50" height="50" relative="1" as="geometry">
            <mxPoint x="580" y="490" as="sourcePoint" />
            <mxPoint x="630" y="440" as="targetPoint" />
            <Array as="points">
              <mxPoint x="970" y="420" />
              <mxPoint x="1020" y="420" />
              <mxPoint x="1020" y="340" />
              <mxPoint x="1020" y="330" />
              <mxPoint x="1080" y="330" />
            </Array>
          </mxGeometry>
        </mxCell>
        <mxCell id="w-jcUPjgkMpujR0xgrFn-236" value="" style="endArrow=classic;html=1;rounded=0;exitX=1;exitY=0.75;exitDx=0;exitDy=0;entryX=0;entryY=0.5;entryDx=0;entryDy=0;strokeColor=#9933FF;" edge="1" parent="1" source="w-jcUPjgkMpujR0xgrFn-210" target="w-jcUPjgkMpujR0xgrFn-213">
          <mxGeometry width="50" height="50" relative="1" as="geometry">
            <mxPoint x="530" y="490" as="sourcePoint" />
            <mxPoint x="580" y="440" as="targetPoint" />
            <Array as="points">
              <mxPoint x="350" y="695" />
              <mxPoint x="760" y="695" />
              <mxPoint x="760" y="740" />
            </Array>
          </mxGeometry>
        </mxCell>
        <mxCell id="w-jcUPjgkMpujR0xgrFn-237" value="Legend" style="text;html=1;strokeColor=none;fillColor=none;align=center;verticalAlign=middle;whiteSpace=wrap;rounded=0;fontSize=14;fontStyle=1" vertex="1" parent="1">
          <mxGeometry x="110" y="500" width="250" height="20" as="geometry" />
        </mxCell>
        <mxCell id="w-jcUPjgkMpujR0xgrFn-238" value="" style="endArrow=classic;html=1;rounded=0;strokeWidth=2;" edge="1" parent="1">
          <mxGeometry width="50" height="50" relative="1" as="geometry">
            <mxPoint x="130" y="530" as="sourcePoint" />
            <mxPoint x="210" y="530" as="targetPoint" />
          </mxGeometry>
        </mxCell>
        <mxCell id="w-jcUPjgkMpujR0xgrFn-239" value="Data Flow" style="text;html=1;strokeColor=none;fillColor=none;align=left;verticalAlign=middle;whiteSpace=wrap;rounded=0;" vertex="1" parent="1">
          <mxGeometry x="220" y="520" width="120" height="20" as="geometry" />
        </mxCell>
        <mxCell id="w-jcUPjgkMpujR0xgrFn-240" value="" style="endArrow=classic;html=1;rounded=0;dashed=1;strokeColor=#9933FF;" edge="1" parent="1">
          <mxGeometry width="50" height="50" relative="1" as="geometry">
            <mxPoint x="130" y="560" as="sourcePoint" />
            <mxPoint x="210" y="560" as="targetPoint" />
          </mxGeometry>
        </mxCell>
        <mxCell id="w-jcUPjgkMpujR0xgrFn-241" value="Monitoring/Logging" style="text;html=1;strokeColor=none;fillColor=none;align=left;verticalAlign=middle;whiteSpace=wrap;rounded=0;" vertex="1" parent="1">
          <mxGeometry x="220" y="550" width="120" height="20" as="geometry" />
        </mxCell>
        <mxCell id="w-jcUPjgkMpujR0xgrFn-242" value="HPA" style="rhombus;whiteSpace=wrap;html=1;fillColor=#f5f5f5;strokeColor=#666666;" vertex="1" parent="1">
          <mxGeometry x="140" y="570" width="60" height="30" as="geometry" />
        </mxCell>
        <mxCell id="w-jcUPjgkMpujR0xgrFn-243" value="Horizontal Pod Autoscaler" style="text;html=1;strokeColor=none;fillColor=none;align=left;verticalAlign=middle;whiteSpace=wrap;rounded=0;" vertex="1" parent="1">
          <mxGeometry x="220" y="575" width="160" height="20" as="geometry" />
        </mxCell>
        <mxCell id="w-jcUPjgkMpujR0xgrFn-244" value="PVC" style="shape=cylinder3;whiteSpace=wrap;html=1;boundedLbl=1;backgroundOutline=1;size=10;fillColor=#f5f5f5;strokeColor=#666666;" vertex="1" parent="1">
          <mxGeometry x="150" y="515" width="40" height="40" as="geometry" />
        </mxCell>
        <mxCell id="w-jcUPjgkMpujR0xgrFn-245" value="Persistent Storage" style="text;html=1;strokeColor=none;fillColor=none;align=left;verticalAlign=middle;whiteSpace=wrap;rounded=0;" vertex="1" parent="1">
          <mxGeometry x="340" y="525" width="120" height="20" as="geometry" />
        </mxCell>
        <mxCell id="w-jcUPjgkMpujR0xgrFn-246" value="1. Store Vote" style="text;html=1;strokeColor=none;fillColor=none;align=center;verticalAlign=middle;whiteSpace=wrap;rounded=0;fontSize=10;" vertex="1" parent="1">
          <mxGeometry x="510" y="290" width="80" height="20" as="geometry" />
        </mxCell>
        <mxCell id="w-jcUPjgkMpujR0xgrFn-247" value="2. Process Vote" style="text;html=1;strokeColor=none;fillColor=none;align=center;verticalAlign=middle;whiteSpace=wrap;rounded=0;fontSize=10;" vertex="1" parent="1">
          <mxGeometry x="630" y="420" width="80" height="20" as="geometry" />
        </mxCell>
        <mxCell id="w-jcUPjgkMpujR0xgrFn-248" value="3. Store Result" style="text;html=1;strokeColor=none;fillColor=none;align=center;verticalAlign=middle;whiteSpace=wrap;rounded=0;fontSize=10;" vertex="1" parent="1">
          <mxGeometry x="570" y="390" width="80" height="20" as="geometry" />
        </mxCell>
        <mxCell id="w-jcUPjgkMpujR0xgrFn-249" value="4. Display Results" style="text;html=1;strokeColor=none;fillColor=none;align=center;verticalAlign=middle;whiteSpace=wrap;rounded=0;fontSize=10;" vertex="1" parent="1">
          <mxGeometry x="540" y="350" width="100" height="20" as="geometry" />
        </mxCell>
        <mxCell id="w-jcUPjgkMpujR0xgrFn-250" value="Auto-scaling based on CPU/Memory" style="shape=note;whiteSpace=wrap;html=1;backgroundOutline=1;darkOpacity=0.05;size=10;fillColor=#f5f5f5;strokeColor=#666666;fontSize=10;" vertex="1" parent="1">
          <mxGeometry x="210" y="500" width="120" height="40" as="geometry" />
        </mxCell>
        <mxCell id="w-jcUPjgkMpujR0xgrFn-251" value="Automated Backup CronJob" style="shape=note;whiteSpace=wrap;html=1;backgroundOutline=1;darkOpacity=0.05;size=10;fillColor=#f5f5f5;strokeColor=#666666;fontSize=10;" vertex="1" parent="1">
          <mxGeometry x="965" y="280" width="120" height="30" as="geometry" />
        </mxCell>
        <mxCell id="w-jcUPjgkMpujR0xgrFn-252" value="Canary Deployment Strategy" style="shape=note;whiteSpace=wrap;html=1;backgroundOutline=1;darkOpacity=0.05;size=10;fillColor=#f5f5f5;strokeColor=#666666;fontSize=10;" vertex="1" parent="1">
          <mxGeometry x="440" y="530" width="120" height="30" as="geometry" />
        </mxCell>
        <mxCell id="w-jcUPjgkMpujR0xgrFn-253" value="Auto-renewing SSL Certificates" style="shape=note;whiteSpace=wrap;html=1;backgroundOutline=1;darkOpacity=0.05;size=10;fillColor=#f5f5f5;strokeColor=#666666;fontSize=10;" vertex="1" parent="1">
          <mxGeometry x="130" y="150" width="120" height="30" as="geometry" />
        </mxCell>
      </root>
    </mxGraphModel>
  </diagram>
</mxfile>
